# xmcd
#
# Track frame offsets:
# 180
# 15668
# 28223
# 47118
# 65382
# 86133
# 101145
# 127525
# 147865
# 162550
# 180999
#
# Disc length: 2585 seconds
#
#
# Revision: 0
# Processed by: cddbd v1.5.2PL0 Copyright (c) Steve Scherf et al.
# Submitted via: Nero 7, 11, 10, 0 
#
DISCID=8e0a170b
DTITLE=The Ned Lucas Band - Drawn To You
DYEAR=1998
DGENRE=Blues
TTITLE0=All I Want
TTITLE1=Tattoo Of Elvis
TTITLE2=I Got A Letter This Morning
TTITLE3=Men Can't Remember
TTITLE4=Not Askin' You To Leave
TTITLE5=Killing Floor
TTITLE6=Thinkin' About You, Thinkin' About Me
TTITLE7=Drawn To You
TTITLE8=As I Tried To Breathe Through The Strength Of Your Perfume
TTITLE9=To Hell On A Harley
TTITLE10=Ain't Too Much To Look At
EXTD=
EXTT0=All I Want
EXTT1=Tattoo Of Elvis
EXTT2=I Got A Letter This Morning
EXTT3=Men Can't Remember
EXTT4=Not Askin' You To Leave
EXTT5=Killing Floor
EXTT6=Thinkin' About You, Thinkin' About Me
EXTT7=Drawn To You
EXTT8=As I Tried To Breathe Through The Strength Of Your Perfume
EXTT9=To Hell On A Harley
EXTT10=Ain't Too Much To Look At
PLAYORDER=
